<svg viewBox="0 0 219 202" fill="none" xmlns="http://www.w3.org/2000/svg">
<path d="M158.7 86.94C152.04 82.23 145.39 75.25 151.07 68.11C156.75 60.96 218.63 0 218.63 0C207.27 9.9 152.96 54.66 147.12 59.05C141.28 63.43 135.16 68.27 136.79 60.32C138.41 52.37 149.13 9.84 149.13 9.84C149.13 9.84 135.82 52.69 133.38 58.37C130.95 64.05 121.78 58.17 116.84 52.44C111.49 46.23 102.09 25.72 129.34 45.56C116.83 34.02 104.5 27.93 98.11 27.72C52.08 1.57 -13.62 4.82 10.48 64.82C-9.23 3.31 72.16 27.51 98.75 52.39C110.88 63.74 105.69 68.91 96.57 66.18C87.95 63.6 76.79 60.24 59.6 53.97C79.1 63.66 87.9 68.28 96.37 72.81C100.42 74.98 105.68 80.92 89.06 83.24C82.48 84.16 69.05 85.99 54.57 87.96C51.72 84.83 48.99 81.54 46.54 78.12C36.35 63.92 22.29 29.54 68.7 46.46C44.95 36.47 28.14 36.13 29.14 47.11C29.33 49.21 21.34 47 19.81 55.31C18.49 62.46 23.24 75.5 34.9 90.64C32.99 90.9 31.11 91.15 29.27 91.4C21.78 81.89 16.11 71.68 14.83 62.99C15.64 74.18 20.19 83.96 25.3 91.94C11.71 93.78 1.18 95.21 0 95.37C1.89 95.35 13.13 95.39 27.66 95.46C34.14 104.68 40.76 111.03 41.42 113.71C37.43 143.8 100.7 169.77 127.36 176.68C82.59 159.21 68.93 147.13 61.86 139.04C53.88 129.9 56.16 119.08 75.28 133.99C75.28 133.99 79.33 135.12 83.58 133.75C100.76 144.78 121.63 155.19 146.49 163.73C148.12 166.82 149.61 169.7 150.91 172.27C134.73 168.11 112.93 158.58 84.5 142.13C109.53 158.48 132.53 168.94 151.81 174.07C152.83 176.11 153.71 177.93 154.39 179.42C161.39 194.81 171.02 219.67 157.72 179.42C157.25 178.01 156.78 176.59 156.32 175.18C215.58 188.78 235.94 149.14 162.67 74.01C179.69 95.69 165.33 91.65 158.68 86.94H158.7ZM105.3 85.48C106.6 83.41 109.2 85.24 111.36 83.99C113.52 82.74 115.29 80.34 107.79 80C117.41 80.14 120.32 71.26 113.82 59.1C118.15 67.1 121.33 79.19 126.53 77.14C129.03 76.16 130.2 73.58 132.65 69.14C132.65 69.14 130.88 74.65 130.6 77.56C130.32 80.52 132.86 77.98 135.7 76.24C138.54 74.51 144.24 69.86 144.24 69.86C144.24 69.86 137.92 76.59 137.05 78.17C136.18 79.76 136.46 82.39 134.87 83.64C133.29 84.88 133.36 88.38 134.46 89.88C134.29 89.6 132.98 87.71 127.87 87.49C125.64 87.39 124.45 101.02 119.39 89.14C118.11 86.13 106.27 87.8 92.27 87.91C92.27 87.91 104.01 87.52 105.3 85.45V85.48ZM32.65 95.48C34.68 95.49 36.75 95.5 38.85 95.51C46.04 104.02 55.33 113.04 66.86 121.95C57.06 118.8 43.5 108.09 32.64 95.48H32.65ZM62.16 95.65C73.42 95.72 84.15 95.8 92.27 95.88C97.68 95.93 103.53 95.08 100.41 98.93C97.29 102.78 91.87 110.63 90.31 111.82C88.75 113.01 91.08 114.04 92.27 116.88C93.14 118.96 77.37 109.95 62.16 95.65ZM101.04 115.64C104.82 111.07 103.08 111.89 104.99 111.25C106.9 110.61 109.74 110.78 109.8 108.49C109.93 103.55 112.9 100.88 116.54 107.95C122.54 119.61 136.57 144.85 146.2 163.12C85.97 140.07 96.27 121.44 101.05 115.65L101.04 115.64ZM189.33 157.56C188.27 170.98 178.15 177.97 155.75 173.38C154.92 170.89 154.1 168.42 153.28 165.96C155.58 166.7 157.89 167.42 160.26 168.13C157.81 167.31 155.46 166.5 153.19 165.69C141.54 130.72 131.04 99.87 132.24 97.84C134.51 94.01 140.27 102.56 154.19 122.67C141.41 96.58 135.84 85.41 147.19 94.21C170.86 112.55 190.77 139.39 189.33 157.56Z" fill="#F77514"/>
</svg>